<?xml version="1.0" encoding="UTF-8" standalone="no"?><!DOCTYPE svg PUBLIC "-//W3C//DTD SVG 1.1//EN" "http://www.w3.org/Graphics/SVG/1.1/DTD/svg11.dtd"><svg width="100%" height="100%" viewBox="0 0 644 644" version="1.1" xmlns="http://www.w3.org/2000/svg" xmlns:xlink="http://www.w3.org/1999/xlink" xml:space="preserve" xmlns:serif="http://www.serif.com/" style="fill-rule:evenodd;clip-rule:evenodd;stroke-linejoin:round;stroke-miterlimit:2;"><g transform="matrix(1,0,0,1,-789.521983,-187.778584)"><g transform="matrix(0.516701,-0.856166,0.856166,0.516701,99.605705,900.19653)"><text x="847.154px" y="361.872px" style="font-family:'Hoover-Light', 'Hoover';font-weight:300;font-size:29px;fill:#fff;">A</text></g><g transform="matrix(0.565369,-0.824838,0.824838,0.565369,87.261963,857.096596)"><text x="856.926px" y="345.746px" style="font-family:'Hoover-Light', 'Hoover';font-weight:300;font-size:29px;fill:#fff;">u</text></g><g transform="matrix(0.601991,-0.798503,0.798503,0.601991,79.367031,823.921259)"><text x="866.177px" y="332.346px" style="font-family:'Hoover-Light', 'Hoover';font-weight:300;font-size:29px;fill:#fff;">r</text></g><g transform="matrix(0.634559,-0.772874,0.772874,0.634559,68.756762,792.739989)"><text x="872.665px" y="323.663px" style="font-family:'Hoover-Light', 'Hoover';font-weight:300;font-size:29px;fill:#fff;">o</text></g><g transform="matrix(0.667093,-0.744975,0.744975,0.667093,61.074767,761.092494)"><text x="882.118px" y="312.21px" style="font-family:'Hoover-Light', 'Hoover';font-weight:300;font-size:29px;fill:#fff;">r</text></g><g transform="matrix(0.698635,-0.715478,0.715478,0.698635,50.391755,727.905966)"><text x="889.265px" y="304.135px" style="font-family:'Hoover-Light', 'Hoover';font-weight:300;font-size:29px;fill:#fff;">a</text></g><g transform="matrix(0.745595,-0.666399,0.666399,0.745595,36.674997,675.750641)"><text x="903.383px" y="289.841px" style="font-family:'Hoover-Light', 'Hoover';font-weight:300;font-size:29px;fill:#fff;">D</text></g><g transform="matrix(0.781677,-0.623684,0.623684,0.781677,27.061937,632.610422)"><text x="917.12px" y="277.651px" style="font-family:'Hoover-Light', 'Hoover';font-weight:300;font-size:29px;fill:#fff;">e</text></g><g transform="matrix(0.82004,-0.572306,0.572306,0.82004,13.300674,579.526978)"><text x="928.153px" y="268.614px" style="font-family:'Hoover-Light', 'Hoover';font-weight:300;font-size:29px;fill:#fff;">m</text></g><g transform="matrix(0.855288,-0.518152,0.518152,0.855288,5.377422,528.344836)"><text x="948.58px" y="254.545px" style="font-family:'Hoover-Light', 'Hoover';font-weight:300;font-size:29px;fill:#fff;">o</text></g><g transform="matrix(0.886009,-0.463668,0.463668,0.886009,-3.260919,475.595686)"><text x="965.631px" y="244.43px" style="font-family:'Hoover-Light', 'Hoover';font-weight:300;font-size:29px;fill:#fff;">-</text></g><g transform="matrix(0.91614,-0.400858,0.400858,0.91614,-12.331016,413.305216)"><text x="981.654px" y="236.124px" style="font-family:'Hoover-Light', 'Hoover';font-weight:300;font-size:29px;fill:#fff;">A</text></g><g transform="matrix(0.937946,-0.346782,0.346782,0.937946,-17.288295,360.594017)"><text x="998.923px" y="228.604px" style="font-family:'Hoover-Light', 'Hoover';font-weight:300;font-size:29px;fill:#fff;">u</text></g><g transform="matrix(0.952824,-0.303522,0.303522,0.952824,-19.838036,318.364922)"><text x="1014.242px" y="223px" style="font-family:'Hoover-Light', 'Hoover';font-weight:300;font-size:29px;fill:#fff;">r</text></g><g transform="matrix(0.964706,-0.263331,0.263331,0.964706,-21.68739,277.541511)"><text x="1024.523px" y="219.675px" style="font-family:'Hoover-Light', 'Hoover';font-weight:300;font-size:29px;fill:#fff;">o</text></g><g transform="matrix(0.97524,-0.221149,0.221149,0.97524,-22.002555,235.08498)"><text x="1038.857px" y="215.803px" style="font-family:'Hoover-Light', 'Hoover';font-weight:300;font-size:29px;fill:#fff;">r</text></g><g transform="matrix(0.984001,-0.178162,0.178162,0.984001,-21.221984,190.37407)"><text x="1049.388px" y="213.351px" style="font-family:'Hoover-Light', 'Hoover';font-weight:300;font-size:29px;fill:#fff;">a</text></g><g transform="matrix(0.99391,-0.110195,0.110195,0.99391,-16.616495,119.09942)"><text x="1069.207px" y="209.882px" style="font-family:'Hoover-Light', 'Hoover';font-weight:300;font-size:29px;fill:#fff;">D</text></g><g transform="matrix(0.998516,-0.054451,0.054451,0.998516,-9.708564,59.521334)"><text x="1087.444px" y="207.926px" style="font-family:'Hoover-Light', 'Hoover';font-weight:300;font-size:29px;fill:#fff;">e</text></g><g transform="matrix(0.99996,0.008919,-0.008919,0.99996,1.889777,-9.817238)"><text x="1101.642px" y="206.971px" style="font-family:'Hoover-Light', 'Hoover';font-weight:300;font-size:29px;fill:#fff;">m</text></g><g transform="matrix(0.997345,0.072815,-0.072815,0.997345,18.087813,-81.470275)"><text x="1126.424px" y="207.343px" style="font-family:'Hoover-Light', 'Hoover';font-weight:300;font-size:29px;fill:#fff;">o</text></g><g transform="matrix(0.990866,0.134852,-0.134852,0.990866,38.649396,-152.656651)"><text x="1146.184px" y="208.968px" style="font-family:'Hoover-Light', 'Hoover';font-weight:300;font-size:29px;fill:#fff;">-</text></g><g transform="matrix(0.979062,0.203562,-0.203562,0.979062,67.42123,-232.532338)"><text x="1164.066px" y="211.473px" style="font-family:'Hoover-Light', 'Hoover';font-weight:300;font-size:29px;fill:#fff;">A</text></g><g transform="matrix(0.96547,0.260514,-0.260514,0.96547,96.936151,-300.636664)"><text x="1182.557px" y="215.353px" style="font-family:'Hoover-Light', 'Hoover';font-weight:300;font-size:29px;fill:#fff;">u</text></g><g transform="matrix(0.952589,0.30426,-0.30426,0.952589,123.638195,-354.163702)"><text x="1198.243px" y="219.643px" style="font-family:'Hoover-Light', 'Hoover';font-weight:300;font-size:29px;fill:#fff;">r</text></g><g transform="matrix(0.93901,0.34389,-0.34389,0.93901,150.357707,-402.014892)"><text x="1208.55px" y="222.885px" style="font-family:'Hoover-Light', 'Hoover';font-weight:300;font-size:29px;fill:#fff;">o</text></g><g transform="matrix(0.923129,0.384492,-0.384492,0.923129,181.658481,-452.519586)"><text x="1222.523px" y="228.045px" style="font-family:'Hoover-Light', 'Hoover';font-weight:300;font-size:29px;fill:#fff;">r</text></g><g transform="matrix(0.905428,0.424501,-0.424501,0.905428,215.102407,-501.24622)"><text x="1232.506px" y="232.135px" style="font-family:'Hoover-Light', 'Hoover';font-weight:300;font-size:29px;fill:#fff;">a</text></g><g transform="matrix(0.874143,0.485668,-0.485668,0.874143,274.344116,-577.10607)"><text x="1250.668px" y="240.78px" style="font-family:'Hoover-Light', 'Hoover';font-weight:300;font-size:29px;fill:#fff;">D</text></g><g transform="matrix(0.845484,0.534001,-0.534001,0.845484,329.084317,-637.812652)"><text x="1266.669px" y="249.745px" style="font-family:'Hoover-Light', 'Hoover';font-weight:300;font-size:29px;fill:#fff;">e</text></g><g transform="matrix(0.809511,0.587105,-0.587105,0.809511,394.59459,-701.79823)"><text x="1278.8px" y="257.189px" style="font-family:'Hoover-Light', 'Hoover';font-weight:300;font-size:29px;fill:#fff;">m</text></g><g transform="matrix(0.770026,0.638012,-0.638012,0.770026,472.15032,-766.120569)"><text x="1298.793px" y="271.879px" style="font-family:'Hoover-Light', 'Hoover';font-weight:300;font-size:29px;fill:#fff;">o</text></g><g transform="matrix(0.728994,0.68452,-0.68452,0.728994,550.938302,-822.268419)"><text x="1313.932px" y="284.66px" style="font-family:'Hoover-Light', 'Hoover';font-weight:300;font-size:29px;fill:#fff;">-</text></g><g transform="matrix(0.680165,0.733059,-0.733059,0.680165,642.194218,-877.785803)"><text x="1327.036px" y="297.059px" style="font-family:'Hoover-Light', 'Hoover';font-weight:300;font-size:29px;fill:#fff;">A</text></g><g transform="matrix(0.636719,0.771096,-0.771096,0.636719,726.511731,-920.207967)"><text x="1339.867px" y="310.939px" style="font-family:'Hoover-Light', 'Hoover';font-weight:300;font-size:29px;fill:#fff;">u</text></g><g transform="matrix(0.601394,0.798953,-0.798953,0.601394,796.665772,-949.776365)"><text x="1350.183px" y="323.517px" style="font-family:'Hoover-Light', 'Hoover';font-weight:300;font-size:29px;fill:#fff;">r</text></g><g transform="matrix(0.567686,0.823245,-0.823245,0.567686,859.989871,-973.337444)"><text x="1356.747px" y="332.161px" style="font-family:'Hoover-Light', 'Hoover';font-weight:300;font-size:29px;fill:#fff;">o</text></g><g transform="matrix(0.531772,0.846887,-0.846887,0.531772,930.860352,-994.862376)"><text x="1365.138px" y="344.396px" style="font-family:'Hoover-Light', 'Hoover';font-weight:300;font-size:29px;fill:#fff;">r</text></g><g transform="matrix(0.494401,0.869234,-0.869234,0.494401,1000.426786,-1012.928751)"><text x="1370.935px" y="353.51px" style="font-family:'Hoover-Light', 'Hoover';font-weight:300;font-size:29px;fill:#fff;">a</text></g><g transform="matrix(0.433619,0.901097,-0.901097,0.433619,1116.38672,-1034.058348)"><text x="1380.772px" y="371.04px" style="font-family:'Hoover-Light', 'Hoover';font-weight:300;font-size:29px;fill:#fff;">D</text></g><g transform="matrix(0.382014,0.924157,-0.924157,0.382014,1216.385171,-1043.814255)"><text x="1388.67px" y="387.604px" style="font-family:'Hoover-Light', 'Hoover';font-weight:300;font-size:29px;fill:#fff;">e</text></g><g transform="matrix(0.321338,0.946964,-0.946964,0.321338,1325.684755,-1048.400587)"><text x="1394.28px" y="400.691px" style="font-family:'Hoover-Light', 'Hoover';font-weight:300;font-size:29px;fill:#fff;">m</text></g><g transform="matrix(0.258823,0.965925,-0.965925,0.258823,1448.992195,-1039.893113)"><text x="1402.106px" y="424.239px" style="font-family:'Hoover-Light', 'Hoover';font-weight:300;font-size:29px;fill:#fff;">o</text></g><g transform="matrix(0.197614,0.98028,-0.98028,0.197614,1563.665739,-1023.519116)"><text x="1407.053px" y="443.411px" style="font-family:'Hoover-Light', 'Hoover';font-weight:300;font-size:29px;fill:#fff;">-</text></g><g transform="matrix(0.128797,0.991671,-0.991671,0.128797,1686.183773,-997.054408)"><text x="1410.554px" y="461.145px" style="font-family:'Hoover-Light', 'Hoover';font-weight:300;font-size:29px;fill:#fff;">A</text></g><g transform="matrix(0.071237,0.997459,-0.997459,0.071237,1790.924829,-963.69361)"><text x="1412.949px" y="479.849px" style="font-family:'Hoover-Light', 'Hoover';font-weight:300;font-size:29px;fill:#fff;">u</text></g><g transform="matrix(0.026354,0.999653,-0.999653,0.026354,1872.741097,-930.515572)"><text x="1414.056px" y="496.124px" style="font-family:'Hoover-Light', 'Hoover';font-weight:300;font-size:29px;fill:#fff;">r</text></g><g transform="matrix(-0.014468,0.999895,-0.999895,-0.014468,1941.709784,-899.990596)"><text x="1414.386px" y="506.914px" style="font-family:'Hoover-Light', 'Hoover';font-weight:300;font-size:29px;fill:#fff;">o</text></g><g transform="matrix(-0.05702,0.998373,-0.998373,-0.05702,2015.670537,-860.332251)"><text x="1414.134px" y="521.751px" style="font-family:'Hoover-Light', 'Hoover';font-weight:300;font-size:29px;fill:#fff;">r</text></g><g transform="matrix(-0.100379,0.994949,-0.994949,-0.100379,2085.368209,-820.389179)"><text x="1413.577px" y="532.588px" style="font-family:'Hoover-Light', 'Hoover';font-weight:300;font-size:29px;fill:#fff;">a</text></g><g transform="matrix(-0.168298,0.985736,-0.985736,-0.168298,2193.676777,-745.745833)"><text x="1411.445px" y="552.57px" style="font-family:'Hoover-Light', 'Hoover';font-weight:300;font-size:29px;fill:#fff;">D</text></g><g transform="matrix(-0.223816,0.974631,-0.974631,-0.223816,2279.670661,-674.17883)"><text x="1408.289px" y="570.661px" style="font-family:'Hoover-Light', 'Hoover';font-weight:300;font-size:29px;fill:#fff;">e</text></g><g transform="matrix(-0.286488,0.958084,-0.958084,-0.286488,2367.94832,-594.346693)"><text x="1405.287px" y="584.565px" style="font-family:'Hoover-Light', 'Hoover';font-weight:300;font-size:29px;fill:#fff;">m</text></g><g transform="matrix(-0.348226,0.937411,-0.937411,-0.348226,2455.052187,-490.507024)"><text x="1398.049px" y="608.236px" style="font-family:'Hoover-Light', 'Hoover';font-weight:300;font-size:29px;fill:#fff;">o</text></g><g transform="matrix(-0.406627,0.913594,-0.913594,-0.406627,2529.194678,-389.086047)"><text x="1390.952px" y="626.804px" style="font-family:'Hoover-Light', 'Hoover';font-weight:300;font-size:29px;fill:#fff;">-</text></g><g transform="matrix(-0.469202,0.883091,-0.883091,-0.469202,2600.769834,-276.732762)"><text x="1383.553px" y="643.254px" style="font-family:'Hoover-Light', 'Hoover';font-weight:300;font-size:29px;fill:#fff;">A</text></g><g transform="matrix(-0.519602,0.854409,-0.854409,-0.519602,2652.775337,-171.785558)"><text x="1374.682px" y="659.879px" style="font-family:'Hoover-Light', 'Hoover';font-weight:300;font-size:29px;fill:#fff;">u</text></g><g transform="matrix(-0.557765,0.829999,-0.829999,-0.557765,2687.396145,-84.310296)"><text x="1366.159px" y="673.786px" style="font-family:'Hoover-Light', 'Hoover';font-weight:300;font-size:29px;fill:#fff;">r</text></g><g transform="matrix(-0.591639,0.806203,-0.806203,-0.591639,2715.362116,-9.840293)"><text x="1360.173px" y="682.777px" style="font-family:'Hoover-Light', 'Hoover';font-weight:300;font-size:29px;fill:#fff;">o</text></g><g transform="matrix(-0.625724,0.780045,-0.780045,-0.625724,2738.844961,75.338271)"><text x="1351.348px" y="694.737px" style="font-family:'Hoover-Light', 'Hoover';font-weight:300;font-size:29px;fill:#fff;">r</text></g><g transform="matrix(-0.658866,0.75226,-0.75226,-0.658866,2759.56981,154.982784)"><text x="1344.644px" y="703.194px" style="font-family:'Hoover-Light', 'Hoover';font-weight:300;font-size:29px;fill:#fff;">a</text></g><g transform="matrix(-0.708553,0.705658,-0.705658,-0.708553,2781.419306,287.778672)"><text x="1331.281px" y="718.273px" style="font-family:'Hoover-Light', 'Hoover';font-weight:300;font-size:29px;fill:#fff;">D</text></g><g transform="matrix(-0.746835,0.665009,-0.665009,-0.746835,2788.9704,400.616386)"><text x="1318.229px" y="731.18px" style="font-family:'Hoover-Light', 'Hoover';font-weight:300;font-size:29px;fill:#fff;">e</text></g><g transform="matrix(-0.787694,0.616067,-0.616067,-0.787694,2794.227648,518.562466)"><text x="1307.762px" y="740.748px" style="font-family:'Hoover-Light', 'Hoover';font-weight:300;font-size:29px;fill:#fff;">m</text></g><g transform="matrix(-0.825791,0.563976,-0.563976,-0.825791,2778.146499,653.685011)"><text x="1288.113px" y="755.919px" style="font-family:'Hoover-Light', 'Hoover';font-weight:300;font-size:29px;fill:#fff;">o</text></g><g transform="matrix(-0.859363,0.511366,-0.511366,-0.859363,2756.620161,775.774451)"><text x="1271.633px" y="766.953px" style="font-family:'Hoover-Light', 'Hoover';font-weight:300;font-size:29px;fill:#fff;">-</text></g><g transform="matrix(-0.892775,0.450503,-0.450503,-0.892775,2727.159789,903.131192)"><text x="1256.102px" y="776.114px" style="font-family:'Hoover-Light', 'Hoover';font-weight:300;font-size:29px;fill:#fff;">A</text></g><g transform="matrix(-0.917514,0.397703,-0.397703,-0.917514,2688.285586,1011.607435)"><text x="1239.236px" y="784.586px" style="font-family:'Hoover-Light', 'Hoover';font-weight:300;font-size:29px;fill:#fff;">u</text></g><g transform="matrix(-0.934703,0.355429,-0.355429,-0.934703,2649.732274,1095.244598)"><text x="1224.261px" y="791.017px" style="font-family:'Hoover-Light', 'Hoover';font-weight:300;font-size:29px;fill:#fff;">r</text></g><g transform="matrix(-0.94875,0.316028,-0.316028,-0.94875,2617.369403,1165.334192)"><text x="1214.194px" y="794.896px" style="font-family:'Hoover-Light', 'Hoover';font-weight:300;font-size:29px;fill:#fff;">o</text></g><g transform="matrix(-0.961622,0.274377,-0.274377,-0.961622,2573.459269,1239.162875)"><text x="1200.067px" y="799.56px" style="font-family:'Hoover-Light', 'Hoover';font-weight:300;font-size:29px;fill:#fff;">r</text></g><g transform="matrix(-0.972763,0.231802,-0.231802,-0.972763,2532.978181,1307.554269)"><text x="1189.669px" y="802.591px" style="font-family:'Hoover-Light', 'Hoover';font-weight:300;font-size:29px;fill:#fff;">a</text></g><g transform="matrix(-0.986406,0.164326,-0.164326,-0.986406,2456.929789,1411.017611)"><text x="1170.101px" y="807.134px" style="font-family:'Hoover-Light', 'Hoover';font-weight:300;font-size:29px;fill:#fff;">D</text></g><g transform="matrix(-0.994104,0.108429,-0.108429,-0.994104,2384.962931,1490.49489)"><text x="1151.959px" y="810.089px" style="font-family:'Hoover-Light', 'Hoover';font-weight:300;font-size:29px;fill:#fff;">e</text></g><g transform="matrix(-0.998998,0.044762,-0.044762,-0.998998,2310.929191,1571.872972)"><text x="1137.866px" y="811.81px" style="font-family:'Hoover-Light', 'Hoover';font-weight:300;font-size:29px;fill:#fff;">m</text></g><g transform="matrix(-0.999819,-0.019025,0.019025,-0.999819,2210.467512,1646.564596)"><text x="1113.066px" y="812.768px" style="font-family:'Hoover-Light', 'Hoover';font-weight:300;font-size:29px;fill:#fff;">o</text></g><g transform="matrix(-0.996722,-0.080898,0.080898,-0.996722,2117.161235,1710.195414)"><text x="1093.225px" y="812.209px" style="font-family:'Hoover-Light', 'Hoover';font-weight:300;font-size:29px;fill:#fff;">-</text></g><g transform="matrix(-0.988737,-0.149663,0.149663,-0.988737,2017.114034,1773.166415)"><text x="1075.277px" y="810.684px" style="font-family:'Hoover-Light', 'Hoover';font-weight:300;font-size:29px;fill:#fff;">A</text></g><g transform="matrix(-0.978339,-0.207011,0.207011,-0.978339,1923.158396,1816.894472)"><text x="1056.638px" y="807.829px" style="font-family:'Hoover-Light', 'Hoover';font-weight:300;font-size:29px;fill:#fff;">u</text></g><g transform="matrix(-0.967862,-0.251481,0.251481,-0.967862,1845.669044,1844.664819)"><text x="1040.703px" y="804.4px" style="font-family:'Hoover-Light', 'Hoover';font-weight:300;font-size:29px;fill:#fff;">r</text></g><g transform="matrix(-0.956457,-0.291872,0.291872,-0.956457,1781.572032,1869.228166)"><text x="1030.215px" y="801.723px" style="font-family:'Hoover-Light', 'Hoover';font-weight:300;font-size:29px;fill:#fff;">o</text></g><g transform="matrix(-0.942859,-0.333192,0.333192,-0.942859,1708.31796,1887.672296)"><text x="1016.023px" y="797.352px" style="font-family:'Hoover-Light', 'Hoover';font-weight:300;font-size:29px;fill:#fff;">r</text></g><g transform="matrix(-0.927346,-0.374204,0.374204,-0.927346,1641.52473,1906.340718)"><text x="1005.825px" y="793.815px" style="font-family:'Hoover-Light', 'Hoover';font-weight:300;font-size:29px;fill:#fff;">a</text></g><g transform="matrix(-0.899356,-0.437216,0.437216,-0.899356,1531.310405,1924.833698)"><text x="987.196px" y="786.169px" style="font-family:'Hoover-Light', 'Hoover';font-weight:300;font-size:29px;fill:#fff;">D</text></g><g transform="matrix(-0.873315,-0.487155,0.487155,-0.873315,1439.437718,1930.513051)"><text x="970.734px" y="778.094px" style="font-family:'Hoover-Light', 'Hoover';font-weight:300;font-size:29px;fill:#fff;">e</text></g><g transform="matrix(-0.840223,-0.54224,0.54224,-0.840223,1345.104887,1939.004484)"><text x="958.226px" y="771.328px" style="font-family:'Hoover-Light', 'Hoover';font-weight:300;font-size:29px;fill:#fff;">m</text></g><g transform="matrix(-0.803428,-0.595402,0.595402,-0.803428,1239.451404,1924.662234)"><text x="937.44px" y="757.728px" style="font-family:'Hoover-Light', 'Hoover';font-weight:300;font-size:29px;fill:#fff;">o</text></g><g transform="matrix(-0.764887,-0.644165,0.644165,-0.764887,1146.148505,1909.882093)"><text x="921.618px" y="745.775px" style="font-family:'Hoover-Light', 'Hoover';font-weight:300;font-size:29px;fill:#fff;">-</text></g><g transform="matrix(-0.718721,-0.695298,0.695298,-0.718721,1049.941401,1892.942487)"><text x="907.86px" y="734.098px" style="font-family:'Hoover-Light', 'Hoover';font-weight:300;font-size:29px;fill:#fff;">A</text></g><g transform="matrix(-0.677568,-0.73546,0.73546,-0.677568,970.072507,1867.240174)"><text x="894.343px" y="720.976px" style="font-family:'Hoover-Light', 'Hoover';font-weight:300;font-size:29px;fill:#fff;">u</text></g><g transform="matrix(-0.643737,-0.765247,0.765247,-0.643737,909.449491,1841.280283)"><text x="883.332px" y="708.942px" style="font-family:'Hoover-Light', 'Hoover';font-weight:300;font-size:29px;fill:#fff;">r</text></g><g transform="matrix(-0.611644,-0.791133,0.791133,-0.611644,858.009446,1822.630762)"><text x="876.356px" y="700.723px" style="font-family:'Hoover-Light', 'Hoover';font-weight:300;font-size:29px;fill:#fff;">o</text></g><g transform="matrix(-0.577058,-0.816703,0.816703,-0.577058,805.114765,1794.811938)"><text x="867.292px" y="688.936px" style="font-family:'Hoover-Light', 'Hoover';font-weight:300;font-size:29px;fill:#fff;">r</text></g><g transform="matrix(-0.540976,-0.841038,0.841038,-0.540976,754.756838,1772.189638)"><text x="860.993px" y="680.128px" style="font-family:'Hoover-Light', 'Hoover';font-weight:300;font-size:29px;fill:#fff;">a</text></g><g transform="matrix(-0.482192,-0.876065,0.876065,-0.482192,679.212985,1727.7846)"><text x="850.219px" y="663.164px" style="font-family:'Hoover-Light', 'Hoover';font-weight:300;font-size:29px;fill:#fff;">D</text></g><g transform="matrix(-0.432074,-0.901838,0.901838,-0.432074,621.445853,1685.478998)"><text x="841.432px" y="647.064px" style="font-family:'Hoover-Light', 'Hoover';font-weight:300;font-size:29px;fill:#fff;">e</text></g><g transform="matrix(-0.372781,-0.927919,0.927919,-0.372781,557.849907,1645.641233)"><text x="835.103px" y="634.284px" style="font-family:'Hoover-Light', 'Hoover';font-weight:300;font-size:29px;fill:#fff;">m</text></g><g transform="matrix(-0.311622,-0.950206,0.950206,-0.311622,502.605369,1586.619137)"><text x="826.017px" y="611.253px" style="font-family:'Hoover-Light', 'Hoover';font-weight:300;font-size:29px;fill:#fff;">o</text></g><g transform="matrix(-0.251104,-0.96796,0.96796,-0.251104,452.555226,1534.817383)"><text x="820.01px" y="592.341px" style="font-family:'Hoover-Light', 'Hoover';font-weight:300;font-size:29px;fill:#fff;">-</text></g><g transform="matrix(-0.182794,-0.983151,0.983151,-0.182794,399.478731,1481.695819)"><text x="815.54px" y="574.822px" style="font-family:'Hoover-Light', 'Hoover';font-weight:300;font-size:29px;fill:#fff;">A</text></g><g transform="matrix(-0.125473,-0.992097,0.992097,-0.125473,362.105591,1431.846273)"><text x="812.134px" y="556.326px" style="font-family:'Hoover-Light', 'Hoover';font-weight:300;font-size:29px;fill:#fff;">u</text></g><g transform="matrix(-0.080307,-0.99677,0.99677,-0.080307,336.841612,1391.000322)"><text x="810.14px" y="540.103px" style="font-family:'Hoover-Light', 'Hoover';font-weight:300;font-size:29px;fill:#fff;">r</text></g><g transform="matrix(-0.039222,-0.999231,0.999231,-0.039222,312.017991,1358.723895)"><text x="809.227px" y="529.357px" style="font-family:'Hoover-Light', 'Hoover';font-weight:300;font-size:29px;fill:#fff;">o</text></g><g transform="matrix(0.00337,-0.999994,0.999994,0.00337,291.483343,1321.421683)"><text x="808.683px" y="514.477px" style="font-family:'Hoover-Light', 'Hoover';font-weight:300;font-size:29px;fill:#fff;">r</text></g><g transform="matrix(0.046345,-0.998925,0.998925,0.046345,268.062027,1288.105537)"><text x="808.657px" y="503.659px" style="font-family:'Hoover-Light', 'Hoover';font-weight:300;font-size:29px;fill:#fff;">a</text></g><g transform="matrix(0.114117,-0.993467,0.993467,0.114117,236.836736,1232.843678)"><text x="809.7px" y="483.622px" style="font-family:'Hoover-Light', 'Hoover';font-weight:300;font-size:29px;fill:#fff;">D</text></g><g transform="matrix(0.170041,-0.985437,0.985437,0.170041,215.236474,1186.268425)"><text x="811.865px" y="465.356px" style="font-family:'Hoover-Light', 'Hoover';font-weight:300;font-size:29px;fill:#fff;">e</text></g><g transform="matrix(0.233321,-0.9724,0.9724,0.233321,185.268454,1137.656255)"><text x="814.095px" y="451.338px" style="font-family:'Hoover-Light', 'Hoover';font-weight:300;font-size:29px;fill:#fff;">m</text></g><g transform="matrix(0.296317,-0.95509,0.95509,0.296317,168.991779,1083.85118)"><text x="820.037px" y="427.242px" style="font-family:'Hoover-Light', 'Hoover';font-weight:300;font-size:29px;fill:#fff;">o</text></g><g transform="matrix(0.355788,-0.934567,0.934567,0.355788,150.509424,1035.11261)"><text x="826.081px" y="408.383px" style="font-family:'Hoover-Light', 'Hoover';font-weight:300;font-size:29px;fill:#fff;">-</text></g></g></svg>