<?xml version="1.0" encoding="UTF-8" standalone="no"?>
<!DOCTYPE svg PUBLIC "-//W3C//DTD SVG 1.1//EN" "http://www.w3.org/Graphics/SVG/1.1/DTD/svg11.dtd">
<svg width="100%" height="100%" viewBox="0 0 648 647" version="1.1" xmlns="http://www.w3.org/2000/svg" xmlns:xlink="http://www.w3.org/1999/xlink" xml:space="preserve" xmlns:serif="http://www.serif.com/" style="fill-rule:evenodd;clip-rule:evenodd;stroke-linejoin:round;stroke-miterlimit:2;">
    <g transform="matrix(1,0,0,1,-1080.268485,-216.552137)">
        <g transform="matrix(1,0,0,1,292.668316,30.123177)">
            <g transform="matrix(0.523779,-0.851854,0.851854,0.523779,95.175994,893.895736)">
                <text x="847.079px" y="361.823px" style="font-family:'Hoover-Light', 'Hoover';font-weight:300;font-size:29px;fill:white;">M</text>
            </g>
            <g transform="matrix(0.577211,-0.816595,0.816595,0.577211,84.688875,846.453206)">
                <text x="859.785px" y="341.44px" style="font-family:'Hoover-Light', 'Hoover';font-weight:300;font-size:29px;fill:white;">o</text>
            </g>
            <g transform="matrix(0.61827,-0.785966,0.785966,0.61827,72.614074,808.18324)">
                <text x="868.315px" y="329.337px" style="font-family:'Hoover-Light', 'Hoover';font-weight:300;font-size:29px;fill:white;">u</text>
            </g>
            <g transform="matrix(0.660826,-0.750539,0.750539,0.660826,60.366678,766.61018)">
                <text x="878.377px" y="316.514px" style="font-family:'Hoover-Light', 'Hoover';font-weight:300;font-size:29px;fill:white;">n</text>
            </g>
            <g transform="matrix(0.693423,-0.720531,0.720531,0.693423,53.998596,734.219546)">
                <text x="889.797px" y="303.655px" style="font-family:'Hoover-Light', 'Hoover';font-weight:300;font-size:29px;fill:white;">t</text>
            </g>
            <g transform="matrix(0.723621,-0.690198,0.690198,0.723621,43.33837,700.847249)">
                <text x="896.777px" y="296.309px" style="font-family:'Hoover-Light', 'Hoover';font-weight:300;font-size:29px;fill:white;">a</text>
            </g>
            <g transform="matrix(0.748937,-0.662641,0.662641,0.748937,38.441454,673.293834)">
                <text x="907.747px" y="285.917px" style="font-family:'Hoover-Light', 'Hoover';font-weight:300;font-size:29px;fill:white;">i</text>
            </g>
            <g transform="matrix(0.776413,-0.630225,0.630225,0.776413,27.776622,638.708932)">
                <text x="914.052px" y="280.208px" style="font-family:'Hoover-Light', 'Hoover';font-weight:300;font-size:29px;fill:white;">n</text>
            </g>
            <g transform="matrix(0.817675,-0.575681,0.575681,0.817675,16.464152,584.759134)">
                <text x="931.401px" y="266.387px" style="font-family:'Hoover-Light', 'Hoover';font-weight:300;font-size:29px;fill:white;">o</text>
            </g>
            <g transform="matrix(0.843773,-0.536701,0.536701,0.843773,9.010463,546.679618)">
                <text x="943.532px" y="257.863px" style="font-family:'Hoover-Light', 'Hoover';font-weight:300;font-size:29px;fill:white;">f</text>
            </g>
            <g transform="matrix(0.878699,-0.477377,0.477377,0.878699,-2.979937,486.962173)">
                <text x="956.721px" y="249.345px" style="font-family:'Hoover-Light', 'Hoover';font-weight:300;font-size:29px;fill:white;">M</text>
            </g>
            <g transform="matrix(0.9076,-0.419835,0.419835,0.9076,-9.565991,432.548271)">
                <text x="977.9px" y="238.007px" style="font-family:'Hoover-Light', 'Hoover';font-weight:300;font-size:29px;fill:white;">o</text>
            </g>
            <g transform="matrix(0.928134,-0.372247,0.372247,0.928134,-15.028555,385.6818)">
                <text x="991.348px" y="231.763px" style="font-family:'Hoover-Light', 'Hoover';font-weight:300;font-size:29px;fill:white;">u</text>
            </g>
            <g transform="matrix(0.947583,-0.319508,0.319508,0.947583,-19.346702,333.410481)">
                <text x="1006.489px" y="225.67px" style="font-family:'Hoover-Light', 'Hoover';font-weight:300;font-size:29px;fill:white;">n</text>
            </g>
            <g transform="matrix(0.96098,-0.276618,0.276618,0.96098,-21.016123,291.516083)">
                <text x="1022.79px" y="220.251px" style="font-family:'Hoover-Light', 'Hoover';font-weight:300;font-size:29px;fill:white;">t</text>
            </g>
            <g transform="matrix(0.97208,-0.234649,0.234649,0.97208,-22.183398,248.343135)">
                <text x="1032.492px" y="217.39px" style="font-family:'Hoover-Light', 'Hoover';font-weight:300;font-size:29px;fill:white;">a</text>
            </g>
            <g transform="matrix(0.98028,-0.197614,0.197614,0.98028,-21.618379,211.157104)">
                <text x="1047.186px" y="213.897px" style="font-family:'Hoover-Light', 'Hoover';font-weight:300;font-size:29px;fill:white;">i</text>
            </g>
            <g transform="matrix(0.987867,-0.155302,0.155302,0.987867,-20.136036,166.495384)">
                <text x="1055.505px" y="212.119px" style="font-family:'Hoover-Light', 'Hoover';font-weight:300;font-size:29px;fill:white;">n</text>
            </g>
            <g transform="matrix(0.994274,-0.106859,0.106859,0.994274,-16.24566,115.807069)">
                <text x="1072.507px" y="209.497px" style="font-family:'Hoover-Light', 'Hoover';font-weight:300;font-size:29px;fill:white;">s</text>
            </g>
            <g transform="matrix(0.998841,-0.048125,0.048125,0.998841,-8.7343,52.706486)">
                <text x="1090.202px" y="207.741px" style="font-family:'Hoover-Light', 'Hoover';font-weight:300;font-size:29px;fill:white;">-</text>
            </g>
            <g transform="matrix(0.999599,0.028334,-0.028334,0.999599,6.306031,-31.317802)">
                <text x="1108.227px" y="206.854px" style="font-family:'Hoover-Light', 'Hoover';font-weight:300;font-size:29px;fill:white;">M</text>
            </g>
            <g transform="matrix(0.995766,0.091925,-0.091925,0.995766,23.885035,-103.202386)">
                <text x="1132.249px" y="207.681px" style="font-family:'Hoover-Light', 'Hoover';font-weight:300;font-size:29px;fill:white;">o</text>
            </g>
            <g transform="matrix(0.989716,0.143043,-0.143043,0.989716,41.694488,-161.921706)">
                <text x="1147.002px" y="209.022px" style="font-family:'Hoover-Light', 'Hoover';font-weight:300;font-size:29px;fill:white;">u</text>
            </g>
            <g transform="matrix(0.980164,0.198191,-0.198191,0.980164,64.956799,-226.330359)">
                <text x="1163.136px" y="211.333px" style="font-family:'Hoover-Light', 'Hoover';font-weight:300;font-size:29px;fill:white;">n</text>
            </g>
            <g transform="matrix(0.970267,0.242038,-0.242038,0.970267,87.077893,-279.212427)">
                <text x="1179.978px" y="214.815px" style="font-family:'Hoover-Light', 'Hoover';font-weight:300;font-size:29px;fill:white;">t</text>
            </g>
            <g transform="matrix(0.958803,0.284071,-0.284071,0.958803,110.721498,-329.054319)">
                <text x="1189.852px" y="217.211px" style="font-family:'Hoover-Light', 'Hoover';font-weight:300;font-size:29px;fill:white;">a</text>
            </g>
            <g transform="matrix(0.947336,0.320241,-0.320241,0.947336,134.372097,-374.000974)">
                <text x="1204.309px" y="221.548px" style="font-family:'Hoover-Light', 'Hoover';font-weight:300;font-size:29px;fill:white;">i</text>
            </g>
            <g transform="matrix(0.932707,0.360634,-0.360634,0.932707,162.423585,-422.132847)">
                <text x="1212.358px" y="224.163px" style="font-family:'Hoover-Light', 'Hoover';font-weight:300;font-size:29px;fill:white;">n</text>
            </g>
            <g transform="matrix(0.905508,0.424328,-0.424328,0.905508,215.109692,-501.241724)">
                <text x="1233.005px" y="232.37px" style="font-family:'Hoover-Light', 'Hoover';font-weight:300;font-size:29px;fill:white;">o</text>
            </g>
            <g transform="matrix(0.88451,0.466522,-0.466522,0.88451,255.289907,-553.912309)">
                <text x="1246.407px" y="238.664px" style="font-family:'Hoover-Light', 'Hoover';font-weight:300;font-size:29px;fill:white;">f</text>
            </g>
            <g transform="matrix(0.850272,0.526343,-0.526343,0.850272,318.137232,-626.560876)">
                <text x="1260.355px" y="245.899px" style="font-family:'Hoover-Light', 'Hoover';font-weight:300;font-size:29px;fill:white;">M</text>
            </g>
            <g transform="matrix(0.814862,0.579655,-0.579655,0.814862,387.042818,-694.474519)">
                <text x="1280.698px" y="258.665px" style="font-family:'Hoover-Light', 'Hoover';font-weight:300;font-size:29px;fill:white;">o</text>
            </g>
            <g transform="matrix(0.784,0.620761,-0.620761,0.784,445.157025,-744.803492)">
                <text x="1292.82px" y="267.264px" style="font-family:'Hoover-Light', 'Hoover';font-weight:300;font-size:29px;fill:white;">u</text>
            </g>
            <g transform="matrix(0.748443,0.663199,-0.663199,0.748443,512.384789,-796.105813)">
                <text x="1305.61px" y="277.367px" style="font-family:'Hoover-Light', 'Hoover';font-weight:300;font-size:29px;fill:white;">n</text>
            </g>
            <g transform="matrix(0.718333,0.695699,-0.695699,0.718333,572.296154,-835.880049)">
                <text x="1318.433px" y="288.827px" style="font-family:'Hoover-Light', 'Hoover';font-weight:300;font-size:29px;fill:white;">t</text>
            </g>
            <g transform="matrix(0.68804,0.725673,-0.725673,0.68804,628.21759,-869.761637)">
                <text x="1325.716px" y="295.79px" style="font-family:'Hoover-Light', 'Hoover';font-weight:300;font-size:29px;fill:white;">a</text>
            </g>
            <g transform="matrix(0.660406,0.750909,-0.750909,0.660406,684.095455,-899.086562)">
                <text x="1336.076px" y="306.791px" style="font-family:'Hoover-Light', 'Hoover';font-weight:300;font-size:29px;fill:white;">i</text>
            </g>
            <g transform="matrix(0.627904,0.778291,-0.778291,0.627904,742.959049,-927.776448)">
                <text x="1341.767px" y="313.114px" style="font-family:'Hoover-Light', 'Hoover';font-weight:300;font-size:29px;fill:white;">n</text>
            </g>
            <g transform="matrix(0.589375,0.80786,-0.80786,0.589375,819.180853,-958.57263)">
                <text x="1352.533px" y="326.538px" style="font-family:'Hoover-Light', 'Hoover';font-weight:300;font-size:29px;fill:white;">s</text>
            </g>
            <g transform="matrix(0.526663,0.850074,-0.850074,0.526663,939.845496,-997.534151)">
                <text x="1365.667px" y="345.175px" style="font-family:'Hoover-Light', 'Hoover';font-weight:300;font-size:29px;fill:white;">-</text>
            </g>
            <g transform="matrix(0.459125,0.888372,-0.888372,0.459125,1064.049741,-1026.690064)">
                <text x="1375.179px" y="360.49px" style="font-family:'Hoover-Light', 'Hoover';font-weight:300;font-size:29px;fill:white;">M</text>
            </g>
            <g transform="matrix(0.401033,0.916063,-0.916063,0.401033,1180.025938,-1040.994479)">
                <text x="1386.065px" y="381.872px" style="font-family:'Hoover-Light', 'Hoover';font-weight:300;font-size:29px;fill:white;">o</text>
            </g>
            <g transform="matrix(0.352911,0.935657,-0.935657,0.352911,1270.799648,-1046.566986)">
                <text x="1392.04px" y="395.471px" style="font-family:'Hoover-Light', 'Hoover';font-weight:300;font-size:29px;fill:white;">u</text>
            </g>
            <g transform="matrix(0.29983,0.953993,-0.953993,0.29983,1370.522063,-1045.93152)">
                <text x="1397.81px" y="410.713px" style="font-family:'Hoover-Light', 'Hoover';font-weight:300;font-size:29px;fill:white;">n</text>
            </g>
            <g transform="matrix(0.256566,0.966527,-0.966527,0.256566,1455.819301,-1038.378219)">
                <text x="1402.899px" y="427.155px" style="font-family:'Hoover-Light', 'Hoover';font-weight:300;font-size:29px;fill:white;">t</text>
            </g>
            <g transform="matrix(0.214279,0.976772,-0.976772,0.214279,1531.181525,-1029.598998)">
                <text x="1405.566px" y="436.948px" style="font-family:'Hoover-Light', 'Hoover';font-weight:300;font-size:29px;fill:white;">a</text>
            </g>
            <g transform="matrix(0.177196,0.984176,-0.984176,0.177196,1603.663498,-1014.803655)">
                <text x="1408.747px" y="451.688px" style="font-family:'Hoover-Light', 'Hoover';font-weight:300;font-size:29px;fill:white;">i</text>
            </g>
            <g transform="matrix(0.134852,0.990866,-0.990866,0.134852,1675.984405,-999.476065)">
                <text x="1410.349px" y="460.026px" style="font-family:'Hoover-Light', 'Hoover';font-weight:300;font-size:29px;fill:white;">n</text>
            </g>
            <g transform="matrix(0.066698,0.997773,-0.997773,0.066698,1799.81886,-960.125683)">
                <text x="1413.134px" y="482.011px" style="font-family:'Hoover-Light', 'Hoover';font-weight:300;font-size:29px;fill:white;">o</text>
            </g>
            <g transform="matrix(0.020015,0.9998,-0.9998,0.020015,1882.576352,-926.906789)">
                <text x="1414.112px" y="496.867px" style="font-family:'Hoover-Light', 'Hoover';font-weight:300;font-size:29px;fill:white;">f</text>
            </g>
            <g transform="matrix(-0.047532,0.99887,-0.99887,-0.047532,1993.680169,-876.087441)">
                <text x="1414.535px" y="512.489px" style="font-family:'Hoover-Light', 'Hoover';font-weight:300;font-size:29px;fill:white;">M</text>
            </g>
            <g transform="matrix(-0.111176,0.993801,-0.993801,-0.111176,2103.517109,-808.367194)">
                <text x="1413.248px" y="536.476px" style="font-family:'Hoover-Light', 'Hoover';font-weight:300;font-size:29px;fill:white;">o</text>
            </g>
            <g transform="matrix(-0.162484,0.986711,-0.986711,-0.162484,2184.918514,-752.016154)">
                <text x="1411.613px" y="551.266px" style="font-family:'Hoover-Light', 'Hoover';font-weight:300;font-size:29px;fill:white;">u</text>
            </g>
            <g transform="matrix(-0.217525,0.976055,-0.976055,-0.217525,2269.244889,-684.471435)">
                <text x="1408.983px" y="567.358px" style="font-family:'Hoover-Light', 'Hoover';font-weight:300;font-size:29px;fill:white;">n</text>
            </g>
            <g transform="matrix(-0.261078,0.965318,-0.965318,-0.261078,2335.875038,-619.855854)">
                <text x="1405.178px" y="584.094px" style="font-family:'Hoover-Light', 'Hoover';font-weight:300;font-size:29px;fill:white;">t</text>
            </g>
            <g transform="matrix(-0.302784,0.953059,-0.953059,-0.302784,2393.292031,-563.048933)">
                <text x="1402.597px" y="593.889px" style="font-family:'Hoover-Light', 'Hoover';font-weight:300;font-size:29px;fill:white;">a</text>
            </g>
            <g transform="matrix(-0.33882,0.940851,-0.940851,-0.33882,2443.936243,-500.887488)">
                <text x="1397.967px" y="608.29px" style="font-family:'Hoover-Light', 'Hoover';font-weight:300;font-size:29px;fill:white;">i</text>
            </g>
            <g transform="matrix(-0.379001,0.925396,-0.925396,-0.379001,2494.294323,-441.193173)">
                <text x="1395.181px" y="616.318px" style="font-family:'Hoover-Light', 'Hoover';font-weight:300;font-size:29px;fill:white;">n</text>
            </g>
            <g transform="matrix(-0.42381,0.905751,-0.905751,-0.42381,2549.74489,-357.655148)">
                <text x="1388.633px" y="632.177px" style="font-family:'Hoover-Light', 'Hoover';font-weight:300;font-size:29px;fill:white;">s</text>
            </g>
            <g transform="matrix(-0.491442,0.870911,-0.870911,-0.491442,2624.559912,-227.216775)">
                <text x="1378.62px" y="652.683px" style="font-family:'Hoover-Light', 'Hoover';font-weight:300;font-size:29px;fill:white;">-</text>
            </g>
            <g transform="matrix(-0.557453,0.830208,-0.830208,-0.557453,2688.267464,-96.183116)">
                <text x="1369.769px" y="668.406px" style="font-family:'Hoover-Light', 'Hoover';font-weight:300;font-size:29px;fill:white;">M</text>
            </g>
            <g transform="matrix(-0.609277,0.792958,-0.792958,-0.609277,2728.367238,32.104694)">
                <text x="1356.274px" y="688.242px" style="font-family:'Hoover-Light', 'Hoover';font-weight:300;font-size:29px;fill:white;">o</text>
            </g>
            <g transform="matrix(-0.649141,0.760668,-0.760668,-0.649141,2754.2824,129.642625)">
                <text x="1347.242px" y="700.029px" style="font-family:'Hoover-Light', 'Hoover';font-weight:300;font-size:29px;fill:white;">u</text>
            </g>
            <g transform="matrix(-0.690332,0.723492,-0.723492,-0.690332,2774.84368,237.270217)">
                <text x="1336.644px" y="712.476px" style="font-family:'Hoover-Light', 'Hoover';font-weight:300;font-size:29px;fill:white;">n</text>
            </g>
            <g transform="matrix(-0.721691,0.692215,-0.692215,-0.721691,2782.522609,331.00509)">
                <text x="1324.72px" y="724.867px" style="font-family:'Hoover-Light', 'Hoover';font-weight:300;font-size:29px;fill:white;">t</text>
            </g>
            <g transform="matrix(-0.750662,0.660686,-0.660686,-0.750662,2789.986153,410.938594)">
                <text x="1317.451px" y="731.928px" style="font-family:'Hoover-Light', 'Hoover';font-weight:300;font-size:29px;fill:white;">a</text>
            </g>
            <g transform="matrix(-0.774764,0.63225,-0.63225,-0.774764,2787.071085,490.802081)">
                <text x="1306.113px" y="741.841px" style="font-family:'Hoover-Light', 'Hoover';font-weight:300;font-size:29px;fill:white;">i</text>
            </g>
            <g transform="matrix(-0.800972,0.598702,-0.598702,-0.800972,2787.9131,567.806015)">
                <text x="1299.578px" y="747.3px" style="font-family:'Hoover-Light', 'Hoover';font-weight:300;font-size:29px;fill:white;">n</text>
            </g>
            <g transform="matrix(-0.84002,0.542556,-0.542556,-0.84002,2770.941801,703.743875)">
                <text x="1281.716px" y="760.398px" style="font-family:'Hoover-Light', 'Hoover';font-weight:300;font-size:29px;fill:white;">o</text>
            </g>
            <g transform="matrix(-0.864622,0.502422,-0.502422,-0.864622,2752.726297,795.165241)">
                <text x="1269.235px" y="768.443px" style="font-family:'Hoover-Light', 'Hoover';font-weight:300;font-size:29px;fill:white;">f</text>
            </g>
            <g transform="matrix(-0.897183,0.441658,-0.441658,-0.897183,2725.253579,918.409759)">
                <text x="1255.725px" y="776.42px" style="font-family:'Hoover-Light', 'Hoover';font-weight:300;font-size:29px;fill:white;">M</text>
            </g>
            <g transform="matrix(-0.92379,0.382899,-0.382899,-0.92379,2675.468491,1041.284326)">
                <text x="1234.109px" y="786.897px" style="font-family:'Hoover-Light', 'Hoover';font-weight:300;font-size:29px;fill:white;">o</text>
            </g>
            <g transform="matrix(-0.942408,0.334464,-0.334464,-0.942408,2635.653546,1131.349481)">
                <text x="1220.423px" y="792.592px" style="font-family:'Hoover-Light', 'Hoover';font-weight:300;font-size:29px;fill:white;">u</text>
            </g>
            <g transform="matrix(-0.959735,0.280906,-0.280906,-0.959735,2585.736894,1225.507765)">
                <text x="1205.037px" y="798.072px" style="font-family:'Hoover-Light', 'Hoover';font-weight:300;font-size:29px;fill:white;">n</text>
            </g>
            <g transform="matrix(-0.971389,0.237494,-0.237494,-0.971389,2533.708198,1300.420871)">
                <text x="1188.523px" y="802.829px" style="font-family:'Hoover-Light', 'Hoover';font-weight:300;font-size:29px;fill:white;">t</text>
            </g>
            <g transform="matrix(-0.98078,0.195117,-0.195117,-0.98078,2491.876452,1365.131366)">
                <text x="1178.702px" y="805.297px" style="font-family:'Hoover-Light', 'Hoover';font-weight:300;font-size:29px;fill:white;">a</text>
            </g>
            <g transform="matrix(-0.987467,0.157827,-0.157827,-0.987467,2440.705816,1422.57033)">
                <text x="1163.869px" y="808.195px" style="font-family:'Hoover-Light', 'Hoover';font-weight:300;font-size:29px;fill:white;">i</text>
            </g>
            <g transform="matrix(-0.993309,0.115489,-0.115489,-0.993309,2396.807233,1480.393279)">
                <text x="1155.518px" y="809.63px" style="font-family:'Hoover-Light', 'Hoover';font-weight:300;font-size:29px;fill:white;">n</text>
            </g>
            <g transform="matrix(-0.997747,0.067093,-0.067093,-0.997747,2328.755548,1544.922004)">
                <text x="1138.435px" y="811.566px" style="font-family:'Hoover-Light', 'Hoover';font-weight:300;font-size:29px;fill:white;">s</text>
            </g>
            <g transform="matrix(-0.99997,-0.00773,0.00773,-0.99997,2224.9755,1634.046843)">
                <text x="1115.646px" y="812.724px" style="font-family:'Hoover-Light', 'Hoover';font-weight:300;font-size:29px;fill:white;">-</text>
            </g>
            <g transform="matrix(-0.996428,-0.084444,0.084444,-0.996428,2122.671986,1714.994634)">
                <text x="1097.606px" y="812.605px" style="font-family:'Hoover-Light', 'Hoover';font-weight:300;font-size:29px;fill:white;">M</text>
            </g>
            <g transform="matrix(-0.988971,-0.148107,0.148107,-0.988971,2015.525903,1770.949274)">
                <text x="1073.699px" y="810.433px" style="font-family:'Hoover-Light', 'Hoover';font-weight:300;font-size:29px;fill:white;">o</text>
            </g>
            <g transform="matrix(-0.979969,-0.19915,0.19915,-0.979969,1935.854998,1811.222601)">
                <text x="1059.016px" y="808.255px" style="font-family:'Hoover-Light', 'Hoover';font-weight:300;font-size:29px;fill:white;">u</text>
            </g>
            <g transform="matrix(-0.967222,-0.253931,0.253931,-0.967222,1847.407571,1848.505499)">
                <text x="1043.007px" y="805.02px" style="font-family:'Hoover-Light', 'Hoover';font-weight:300;font-size:29px;fill:white;">n</text>
            </g>
            <g transform="matrix(-0.95486,-0.297057,0.297057,-0.95486,1768.706804,1869.955317)">
                <text x="1026.431px" y="800.593px" style="font-family:'Hoover-Light', 'Hoover';font-weight:300;font-size:29px;fill:white;">t</text>
            </g>
            <g transform="matrix(-0.941047,-0.338276,0.338276,-0.941047,1703.708192,1892.204425)">
                <text x="1016.736px" y="797.645px" style="font-family:'Hoover-Light', 'Hoover';font-weight:300;font-size:29px;fill:white;">a</text>
            </g>
            <g transform="matrix(-0.92749,-0.373849,0.373849,-0.92749,1636.051604,1902.268424)">
                <text x="1002.504px" y="792.473px" style="font-family:'Hoover-Light', 'Hoover';font-weight:300;font-size:29px;fill:white;">i</text>
            </g>
            <g transform="matrix(-0.91062,-0.413245,0.413245,-0.91062,1574.133561,1919.276651)">
                <text x="994.625px" y="789.405px" style="font-family:'Hoover-Light', 'Hoover';font-weight:300;font-size:29px;fill:white;">n</text>
            </g>
            <g transform="matrix(-0.879961,-0.475046,0.475046,-0.879961,1461.47705,1929.396776)">
                <text x="974.508px" y="780.049px" style="font-family:'Hoover-Light', 'Hoover';font-weight:300;font-size:29px;fill:white;">o</text>
            </g>
            <g transform="matrix(-0.856555,-0.516056,0.516056,-0.856555,1386.046528,1931.212936)">
                <text x="961.427px" y="772.971px" style="font-family:'Hoover-Light', 'Hoover';font-weight:300;font-size:29px;fill:white;">f</text>
            </g>
            <g transform="matrix(-0.819182,-0.573534,0.573534,-0.819182,1285.765421,1935.332002)">
                <text x="947.959px" y="764.984px" style="font-family:'Hoover-Light', 'Hoover';font-weight:300;font-size:29px;fill:white;">M</text>
            </g>
            <g transform="matrix(-0.780978,-0.624558,0.624558,-0.780978,1184.343966,1917.551562)">
                <text x="928.398px" y="751.111px" style="font-family:'Hoover-Light', 'Hoover';font-weight:300;font-size:29px;fill:white;">o</text>
            </g>
            <g transform="matrix(-0.747825,-0.663896,0.663896,-0.747825,1109.826487,1905.196167)">
                <text x="916.749px" y="741.819px" style="font-family:'Hoover-Light', 'Hoover';font-weight:300;font-size:29px;fill:white;">u</text>
            </g>
            <g transform="matrix(-0.709996,-0.704206,0.704206,-0.709996,1031.997223,1887.034252)">
                <text x="904.555px" y="731.02px" style="font-family:'Hoover-Light', 'Hoover';font-weight:300;font-size:29px;fill:white;">n</text>
            </g>
            <g transform="matrix(-0.678115,-0.734955,0.734955,-0.678115,969.217338,1862.199644)">
                <text x="892.398px" y="718.858px" style="font-family:'Hoover-Light', 'Hoover';font-weight:300;font-size:29px;fill:white;">t</text>
            </g>
            <g transform="matrix(-0.646016,-0.763324,0.763324,-0.646016,914.440529,1846.966081)">
                <text x="885.476px" y="711.452px" style="font-family:'Hoover-Light', 'Hoover';font-weight:300;font-size:29px;fill:white;">a</text>
            </g>
            <g transform="matrix(-0.617096,-0.786888,0.786888,-0.617096,865.465933,1820.982794)">
                <text x="875.783px" y="699.921px" style="font-family:'Hoover-Light', 'Hoover';font-weight:300;font-size:29px;fill:white;">i</text>
            </g>
            <g transform="matrix(-0.583007,-0.812467,0.812467,-0.583007,814.660458,1804.671828)">
                <text x="870.448px" y="693.276px" style="font-family:'Hoover-Light', 'Hoover';font-weight:300;font-size:29px;fill:white;">n</text>
            </g>
            <g transform="matrix(-0.542872,-0.839816,0.839816,-0.542872,757.120097,1770.701735)">
                <text x="860.474px" y="679.293px" style="font-family:'Hoover-Light', 'Hoover';font-weight:300;font-size:29px;fill:white;">s</text>
            </g>
            <g transform="matrix(-0.47771,-0.878518,0.878518,-0.47771,673.935697,1720.5536)">
                <text x="848.414px" y="659.945px" style="font-family:'Hoover-Light', 'Hoover';font-weight:300;font-size:29px;fill:white;">-</text>
            </g>
            <g transform="matrix(-0.407848,-0.91305,0.91305,-0.407848,594.182395,1673.542553)">
                <text x="839.773px" y="644.095px" style="font-family:'Hoover-Light', 'Hoover';font-weight:300;font-size:29px;fill:white;">M</text>
            </g>
            <g transform="matrix(-0.348045,-0.937478,0.937478,-0.348045,535.821277,1616.830518)">
                <text x="830.111px" y="622.101px" style="font-family:'Hoover-Light', 'Hoover';font-weight:300;font-size:29px;fill:white;">o</text>
            </g>
            <g transform="matrix(-0.298906,-0.954282,0.954282,-0.298906,491.103533,1577.228475)">
                <text x="824.932px" y="608.212px" style="font-family:'Hoover-Light', 'Hoover';font-weight:300;font-size:29px;fill:white;">u</text>
            </g>
            <g transform="matrix(-0.244874,-0.969555,0.969555,-0.244874,446.222836,1532.881919)">
                <text x="820.044px" y="592.673px" style="font-family:'Hoover-Light', 'Hoover';font-weight:300;font-size:29px;fill:white;">n</text>
            </g>
            <g transform="matrix(-0.201069,-0.979577,0.979577,-0.201069,415.737689,1491.041946)">
                <text x="815.906px" y="575.986px" style="font-family:'Hoover-Light', 'Hoover';font-weight:300;font-size:29px;fill:white;">t</text>
            </g>
            <g transform="matrix(-0.158409,-0.987374,0.987374,-0.158409,383.799027,1459.265231)">
                <text x="813.804px" y="566.067px" style="font-family:'Hoover-Light', 'Hoover';font-weight:300;font-size:29px;fill:white;">a</text>
            </g>
            <g transform="matrix(-0.120973,-0.992656,0.992656,-0.120973,362.546175,1423.297124)">
                <text x="811.46px" y="551.126px" style="font-family:'Hoover-Light', 'Hoover';font-weight:300;font-size:29px;fill:white;">i</text>
            </g>
            <g transform="matrix(-0.078533,-0.996911,0.996911,-0.078533,332.947869,1393.152019)">
                <text x="810.334px" y="542.701px" style="font-family:'Hoover-Light', 'Hoover';font-weight:300;font-size:29px;fill:white;">n</text>
            </g>
            <g transform="matrix(-0.010703,-0.999943,0.999943,-0.010703,296.881719,1334.923542)">
                <text x="808.797px" y="520.601px" style="font-family:'Hoover-Light', 'Hoover';font-weight:300;font-size:29px;fill:white;">o</text>
            </g>
            <g transform="matrix(0.03566,-0.999364,0.999364,0.03566,274.389689,1295.848673)">
                <text x="808.651px" y="505.747px" style="font-family:'Hoover-Light', 'Hoover';font-weight:300;font-size:29px;fill:white;">f</text>
            </g>
        </g>
    </g>
</svg>
